<svg width="30" height="30" viewBox="0 0 30 30" fill="" xmlns="http://www.w3.org/2000/svg">
<path d="M20.689 2H9.12316C5.19545 2 2 5.19561 2 9.12332V20.6892C2 24.617 5.19545 27.8125 9.12316 27.8125H20.689C24.617 27.8125 27.8125 24.6169 27.8125 20.6892V9.12332C27.8127 5.19561 24.617 2 20.689 2ZM25.5224 20.6892C25.5224 23.3542 23.3542 25.5223 20.6892 25.5223H9.12316C6.45828 25.5224 4.29021 23.3542 4.29021 20.6892V9.12332C4.29021 6.45843 6.45828 4.29021 9.12316 4.29021H20.689C23.3541 4.29021 25.5223 6.45843 25.5223 9.12332V20.6892H25.5224Z" fill=""/>
<path d="M14.9062 8.25513C11.2387 8.25513 8.255 11.2388 8.255 14.9064C8.255 18.5737 11.2387 21.5573 14.9062 21.5573C18.5738 21.5573 21.5575 18.5737 21.5575 14.9064C21.5575 11.2388 18.5738 8.25513 14.9062 8.25513ZM14.9062 19.2669C12.5017 19.2669 10.5452 17.3108 10.5452 14.9062C10.5452 12.5015 12.5015 10.5452 14.9062 10.5452C17.311 10.5452 19.2673 12.5015 19.2673 14.9062C19.2673 17.3108 17.3108 19.2669 14.9062 19.2669Z" fill=""/>
<path d="M21.8365 6.31372C21.3952 6.31372 20.9618 6.49236 20.6501 6.80535C20.337 7.11682 20.157 7.55043 20.157 7.99321C20.157 8.43461 20.3371 8.86807 20.6501 9.18106C20.9616 9.49253 21.3952 9.6727 21.8365 9.6727C22.2792 9.6727 22.7113 9.49253 23.0243 9.18106C23.3373 8.86807 23.516 8.43445 23.516 7.99321C23.516 7.55043 23.3373 7.11682 23.0243 6.80535C22.7129 6.49236 22.2792 6.31372 21.8365 6.31372Z" fill=""/>
</svg>
