<svg width="30" height="30" viewBox="0 0 30 30" fill="none" xmlns="http://www.w3.org/2000/svg">
    <path d="M25.4613 5H4.53865C2.58748 5 1 6.54802 1 8.45069V21.5493C1 23.452 2.58748 25 4.53865 25H25.4613C27.4125 25 29 23.452 29 21.5493V8.45069C29 6.54802 27.4125 5 25.4613 5ZM24.9085 7.22587L15 14.6898L5.0915 7.22587H24.9085ZM25.4613 22.7743H4.53865C3.84611 22.7743 3.28261 22.2248 3.28261 21.5495V8.67594L14.3023 16.9769C14.5077 17.1317 14.7539 17.209 15 17.209C15.2461 17.209 15.4923 17.1317 15.6977 16.9769L26.7174 8.67594V21.5493C26.7174 22.2248 26.1539 22.7743 25.4613 22.7743Z" fill=""/>
</svg>
