<svg width="30" height="30" viewBox="0 0 30 30" fill="none" xmlns="http://www.w3.org/2000/svg">
<path d="M20.7258 17.1205L20.7157 17.205C18.238 15.9701 17.9788 15.8056 17.6588 16.2856C17.4369 16.618 16.7901 17.3717 16.5952 17.5948C16.398 17.8146 16.202 17.8315 15.8673 17.6793C15.5293 17.5103 14.4442 17.1554 13.1598 16.0061C12.1592 15.1104 11.4877 14.0118 11.2894 13.6738C10.9593 13.1037 11.6499 13.0225 12.2787 11.8327C12.3913 11.5961 12.3339 11.4102 12.2505 11.2423C12.166 11.0733 11.4933 9.41699 11.2116 8.75672C10.9412 8.09871 10.6629 8.18209 10.4545 8.18209C9.80548 8.12575 9.33112 8.13476 8.9131 8.56968C7.09455 10.5685 7.55313 12.6304 9.10915 14.8231C12.1671 18.8252 13.7964 19.5621 16.7755 20.5852C17.58 20.841 18.3135 20.8049 18.8937 20.7215C19.5405 20.619 20.8847 19.9092 21.1652 19.1148C21.4525 18.3205 21.4525 17.6613 21.368 17.5092C21.2847 17.3571 21.0638 17.2726 20.7258 17.1205V17.1205Z" fill="white"/>
<path d="M24.1206 4.8866C15.4572 -3.48843 1.11943 2.5858 1.1138 14.4008C1.1138 16.7624 1.73238 19.0654 2.91094 21.0992L1 28.0422L8.13787 26.1808C17.0447 30.992 28.0372 24.6034 28.0417 14.4075C28.0417 10.829 26.6445 7.46119 24.1037 4.93054L24.1206 4.8866ZM25.7904 14.3703C25.7837 22.9707 16.3428 28.3419 8.87588 23.9521L8.47026 23.711L4.245 24.8096L5.37737 20.7026L5.10808 20.2801C0.46142 12.883 5.7999 3.21565 14.602 3.21565C17.5923 3.21565 20.399 4.38182 22.5128 6.49445C24.6254 8.58906 25.7904 11.3958 25.7904 14.3703V14.3703Z" fill="white"/>
</svg>
